<svg width="95" height="31" viewBox="0 0 95 31" fill="none" xmlns="http://www.w3.org/2000/svg">
<g clip-path="url(#clip0_507_1960)">
<mask id="mask0_507_1960" style="mask-type:luminance" maskUnits="userSpaceOnUse" x="0" y="0" width="95" height="31">
<path d="M95 0H0V31H95V0Z" fill="white"/>
</mask>
<g mask="url(#mask0_507_1960)">
<mask id="mask1_507_1960" style="mask-type:luminance" maskUnits="userSpaceOnUse" x="-1" y="3" width="17" height="29">
<path d="M15.5741 3.02539H-0.77832V31.7571H15.5741V3.02539Z" fill="white"/>
<path d="M12.8389 8.33505C12.8213 8.51266 12.7702 8.72693 12.684 8.97788C12.6183 9.23065 12.5526 9.48349 12.487 9.73625C12.4203 9.98909 12.387 10.225 12.386 10.444C12.387 10.6432 12.4664 10.7799 12.6232 10.8541C12.1546 11.8663 11.8145 12.721 11.6027 13.4184C11.4116 14.1176 11.2331 14.7882 11.0675 15.43C10.9244 16.054 10.7469 16.7147 10.5352 17.4121C10.3234 18.1094 9.98426 18.9543 9.51759 19.9467C9.23235 20.5577 8.91371 20.9763 8.56377 21.2029C8.21476 21.4098 7.85789 21.4963 7.49227 21.4625C7.12564 21.4287 6.75901 21.2954 6.39237 21.0624C6.02573 20.8294 5.69047 20.5795 5.38853 20.3126C5.36402 19.9321 5.39832 19.4773 5.49146 18.9481C5.60713 18.4011 5.7336 17.8354 5.8728 17.2509C6.012 16.6663 6.14925 16.1113 6.28256 15.5859C6.41785 15.041 6.52372 14.5828 6.60117 14.2115C6.82566 14.0133 6.98546 13.8487 7.08054 13.7181C7.17563 13.5874 7.24131 13.4442 7.2766 13.2882C7.33248 13.134 7.38248 12.9395 7.42659 12.7045C7.46972 12.4695 7.55306 12.1387 7.67755 11.7121C7.73931 11.4988 7.73735 11.3094 7.67167 11.144C7.62755 10.9607 7.63344 10.7921 7.6903 10.638C7.73833 10.5627 7.80502 10.5092 7.89028 10.4772C7.99619 10.4471 8.06378 10.3837 8.09321 10.2869C8.20005 10.0379 8.23929 9.84233 8.21282 9.70049C8.18728 9.53883 8.23633 9.35412 8.3589 9.14642C8.47648 8.99792 8.62256 8.76247 8.79808 8.44015C8.99509 8.0999 9.09211 7.74045 9.08822 7.36172C9.28429 7.24045 9.4725 7.09851 9.65285 6.9359C9.83226 6.77329 10.0107 6.63041 10.1872 6.50727C10.3852 6.36627 10.591 6.2558 10.8037 6.17588C11.037 6.09785 11.3067 6.07289 11.6116 6.10103C11.7527 6.33311 11.8547 6.55159 11.9164 6.75644C11.9782 6.96129 12.0311 7.15534 12.0752 7.33858C12.139 7.5237 12.2242 7.70083 12.3311 7.86997C12.437 8.03911 12.6066 8.19411 12.8389 8.33505ZM8.17061 24.9005C8.19615 25.0621 8.2118 25.213 8.21866 25.3529C8.22559 25.4929 8.23143 25.6429 8.23633 25.8026C8.07359 26.2058 7.905 26.5685 7.72951 26.8909C7.65501 27.0234 7.60599 27.1085 7.58148 27.1462C7.55697 27.1837 7.54423 27.2123 7.54227 27.2321C7.54031 27.2519 7.54815 27.2824 7.56384 27.3237C7.58247 27.3454 7.5854 27.4252 7.57168 27.5634L7.38444 27.9045C7.26876 28.0333 7.13642 28.1306 6.98643 28.1964C6.85703 28.2641 6.71783 28.3209 6.56981 28.367C6.50511 28.4008 6.43059 28.4239 6.34727 28.4361C6.28257 28.47 6.22767 28.5048 6.18355 28.5405L6.0571 28.8873L5.62478 28.907C5.29147 28.9561 4.99248 28.9683 4.72878 28.9438L4.39253 28.9129C4.17001 28.6734 3.99355 28.4878 3.86218 28.3563C3.73181 28.2247 3.57985 28.1012 3.40634 27.9856C3.22008 27.59 3.1191 27.2522 3.10538 26.9722C3.09068 26.7118 3.05539 26.5394 3.00246 26.4548L2.61621 26.001L3.00834 25.7684L2.69758 25.1721C2.95834 25.017 3.15439 24.9057 3.2838 24.8379C3.4132 24.7703 3.52299 24.7007 3.6122 24.6293C3.72298 24.54 3.8367 24.4309 3.95139 24.3022C4.06706 24.1733 4.25234 23.9615 4.50624 23.6663L4.81897 23.3068L5.16403 23.5478C5.26011 23.6164 5.43754 23.6924 5.69634 23.7761C5.97671 23.8418 6.21689 23.9038 6.41589 23.962C6.73155 24.0907 7.03937 24.1987 7.33837 24.2861C7.65991 24.3555 7.90399 24.4776 8.07164 24.6524L8.17061 24.9005Z" fill="black"/>
</mask>
<g mask="url(#mask1_507_1960)">
<path d="M12.8397 8.33383L14.7915 8.51386C14.8621 7.79625 14.5082 7.10171 13.8788 6.71979L12.8397 8.33383ZM12.6848 8.97667L10.8241 8.37519C10.8095 8.4198 10.7957 8.46502 10.784 8.51061L12.6848 8.97667ZM12.3868 10.4427L10.4261 10.435C10.4261 10.4406 10.4261 10.4464 10.4261 10.452L12.3868 10.4427ZM12.624 10.8528L14.4121 11.6326C14.8464 10.6951 14.4347 9.59251 13.4827 9.14218L12.624 10.8528ZM11.6035 13.4172L9.7233 12.8788C9.7184 12.8952 9.71349 12.9116 9.70858 12.9281L11.6035 13.4172ZM11.0683 15.4288L9.16646 14.967C9.16257 14.983 9.1586 14.9991 9.1547 15.0152L11.0683 15.4288ZM9.51843 19.9455L7.73423 19.1556L7.73226 19.1593L9.51843 19.9455ZM8.56453 21.2017L9.58703 22.8254C9.6086 22.8126 9.63017 22.7993 9.65073 22.7857L8.56453 21.2017ZM5.38932 20.3114L3.43262 20.4291C3.46399 20.9232 3.69241 21.3859 4.06983 21.719L5.38932 20.3114ZM5.49225 18.9469L3.57183 18.5661C3.56692 18.5864 3.563 18.6069 3.56006 18.6273L5.49225 18.9469ZM6.28336 15.5847L8.1871 16.0406L8.18905 16.0309L6.28336 15.5847ZM6.60197 14.2103L5.28247 12.8027C4.97465 13.0752 4.76291 13.4361 4.68056 13.8329L6.60197 14.2103ZM7.2774 13.287L5.42854 12.6527C5.40305 12.7249 5.3805 12.7985 5.36384 12.8733L7.2774 13.287ZM7.67246 11.1428L5.76184 11.5711C5.78243 11.6588 5.80988 11.745 5.84321 11.829L7.67246 11.1428ZM7.6911 10.6368L6.02751 9.62842C5.95203 9.74622 5.89026 9.87166 5.84222 10.0025L7.6911 10.6368ZM7.89105 10.476L7.33818 8.65011C7.28622 8.66493 7.23525 8.68194 7.18428 8.70092L7.89105 10.476ZM8.09397 10.2857L6.28336 9.55644C6.25787 9.61565 6.23632 9.67613 6.21671 9.73753L8.09397 10.2857ZM8.21358 9.69927L6.27454 9.98409C6.27847 10.005 6.28141 10.0258 6.28533 10.0466L8.21358 9.69927ZM8.35966 9.1452L6.80293 7.98845C6.75098 8.05491 6.70294 8.1247 6.65981 8.19736L8.35966 9.1452ZM8.79884 8.43893L7.09017 7.50492C7.08134 7.5202 7.07252 7.53558 7.06467 7.55108L8.79884 8.43893ZM9.08898 7.36051L8.03713 5.75448C7.46464 6.10741 7.12154 6.72199 7.1284 7.37978L9.08898 7.36051ZM10.1879 6.50606L11.3339 8.05045C11.3378 8.04758 11.3418 8.04463 11.3457 8.04168L10.1879 6.50606ZM10.8046 6.17468L10.1664 4.37541C10.1429 4.38307 10.1203 4.39113 10.0978 4.39959L10.8046 6.17468ZM11.6123 6.09982L13.2994 5.1311C12.9809 4.607 12.4221 4.26285 11.7976 4.20524L11.6123 6.09982ZM12.076 7.33737L10.1654 7.7657C10.1801 7.82528 10.1967 7.88426 10.2174 7.94233L12.076 7.33737ZM8.17145 24.8993L10.1105 24.6144C10.089 24.4771 10.0517 24.3425 10.0007 24.2129L8.17145 24.8993ZM8.2371 25.8014L10.0625 26.495C10.1595 26.2564 10.2046 26.0013 10.1967 25.7451L8.2371 25.8014ZM7.73031 26.8897L9.45169 27.8015C9.45567 27.7936 9.46057 27.7856 9.46447 27.7776L7.73031 26.8897ZM7.56464 27.3225L5.73635 28.0087C5.81183 28.1995 5.91967 28.3771 6.05397 28.5349L7.56464 27.3225ZM7.57247 27.5621L9.30273 28.457C9.42428 28.2353 9.49974 27.9924 9.52427 27.7422L7.57247 27.5621ZM7.38523 27.9033L8.8655 29.1509C8.96252 29.0429 9.04584 28.9245 9.11546 28.7982L7.38523 27.9033ZM6.98723 28.1952L6.17945 26.4609C6.13926 26.4789 6.09809 26.4982 6.05888 26.5189L6.98723 28.1952ZM6.5706 28.3658L5.97163 26.5535C5.85791 26.589 5.74713 26.6345 5.64224 26.6896L6.5706 28.3658ZM6.34807 28.4349L6.05495 26.5532C5.83243 26.5859 5.61774 26.6554 5.41972 26.7586L6.34807 28.4349ZM6.18436 28.5393L4.93543 27.0723C4.66095 27.292 4.4541 27.5798 4.33549 27.9051L6.18436 28.5393ZM6.0579 28.8861L6.15005 30.7871C6.94704 30.7506 7.6411 30.2499 7.90678 29.5203L6.0579 28.8861ZM5.62558 28.9059L5.53245 27.0049C5.46578 27.008 5.39815 27.0144 5.33149 27.0243L5.62558 28.9059ZM4.39333 28.9118L2.93757 30.1866C3.26695 30.5403 3.71985 30.7613 4.20805 30.8063L4.39333 28.9118ZM3.40713 27.9844L1.62493 28.7779C1.77295 29.0905 2.00529 29.3584 2.29742 29.5531L3.40713 27.9844ZM3.10618 26.971L5.06484 26.8812C5.06484 26.8745 5.06386 26.8676 5.06386 26.8609L3.10618 26.971ZM3.00325 26.4536L4.67566 25.461C4.62762 25.3841 4.57371 25.3107 4.51489 25.2413L3.00325 26.4536ZM2.61701 25.9998L1.59454 24.3762C1.10929 24.664 0.77696 25.1418 0.68285 25.6859C0.58972 26.2301 0.743629 26.7869 1.10536 27.2122L2.61701 25.9998ZM3.00913 25.7672L4.03159 27.3909C4.90407 26.8734 5.21973 25.7927 4.758 24.9077L3.00913 25.7672ZM2.69837 25.1709L1.67591 23.5473C0.803432 24.0647 0.487771 25.1454 0.948517 26.0304L2.69837 25.1709ZM4.50705 23.6651L3.00815 22.4387L3.00423 22.4434L4.50705 23.6651ZM4.81976 23.3055L5.9628 21.7599C5.1315 21.1801 3.98062 21.3191 3.31989 22.0791L4.81976 23.3055ZM5.16483 23.5466L6.32846 22.0146C6.3216 22.01 6.31571 22.0054 6.30885 22.0008L5.16483 23.5466ZM5.69714 23.7749L5.0766 25.5803C5.12955 25.5974 5.18346 25.6123 5.23738 25.6249L5.69714 23.7749ZM6.41669 23.9608L7.17643 22.2062C7.11271 22.1802 7.04801 22.1576 6.98135 22.1383L6.41669 23.9608ZM7.33916 24.2848L6.77451 26.1073C6.82058 26.1207 6.86665 26.1324 6.91273 26.1424L7.33916 24.2848ZM8.0724 24.6512L9.9017 23.9649C9.81153 23.7391 9.67822 23.5321 9.5076 23.3548L8.0724 24.6512ZM12.8397 8.33383L10.8879 8.15381C10.8899 8.13997 10.8888 8.15146 10.879 8.19335C10.8693 8.23426 10.8526 8.29414 10.8241 8.37519L12.6848 8.97667L14.5445 9.57814C14.6571 9.24932 14.7552 8.88563 14.7915 8.51386L12.8397 8.33383ZM12.6848 8.97667L10.784 8.51061C10.7713 8.55741 10.6977 8.84299 10.685 8.88979C10.684 8.89448 10.6615 8.97992 10.6605 8.98461C10.6594 8.9893 10.6369 9.07473 10.6359 9.07942C10.635 9.08411 10.6124 9.16955 10.6115 9.17424C10.6094 9.17892 10.5879 9.26436 10.5859 9.26905L12.4877 9.73503L14.3886 10.2011C14.4317 10.0326 14.4435 9.99044 14.4866 9.82191C14.5042 9.75636 14.4945 9.79265 14.5111 9.7271C14.5287 9.66154 14.5189 9.69783 14.5366 9.63228C14.5533 9.56673 14.5435 9.60302 14.5611 9.53747C14.5778 9.47199 14.5689 9.5082 14.5856 9.44273L12.6848 8.97667ZM12.4877 9.73503L10.5859 9.26905C10.4889 9.64415 10.4281 10.0354 10.4261 10.435L12.3868 10.4427L14.3474 10.4505C14.3484 10.4121 14.3542 10.3316 14.3886 10.2011L12.4877 9.73503ZM12.3868 10.4427L10.4261 10.452C10.4281 10.7887 10.4968 11.2089 10.7369 11.6251C10.9879 12.0592 11.3585 12.371 11.7653 12.5636L12.624 10.8528L13.4827 9.14218C13.7328 9.26051 13.9857 9.46685 14.1572 9.7643C14.319 10.0437 14.3474 10.2961 14.3474 10.4334L12.3868 10.4427ZM12.624 10.8528L10.836 10.0731C10.3477 11.1275 9.96937 12.0683 9.7233 12.8788L11.6035 13.4172L13.4837 13.9555C13.6612 13.3714 13.9641 12.6026 14.4121 11.6326L12.624 10.8528ZM11.6035 13.4172L9.70858 12.9281C9.51547 13.6356 9.33411 14.3152 9.16646 14.967L11.0683 15.4288L12.97 15.8907C13.1328 15.2586 13.3092 14.5973 13.4985 13.9062L11.6035 13.4172ZM11.0683 15.4288L9.1547 15.0152C9.02233 15.5921 8.85569 16.2109 8.65471 16.8725L10.5359 17.4109L12.4162 17.9492C12.6387 17.2161 12.8279 16.5137 12.9818 15.8424L11.0683 15.4288ZM10.5359 17.4109L8.65471 16.8725C8.47826 17.4528 8.17932 18.2087 7.73423 19.1556L9.51843 19.9455L11.3015 20.7354C11.7898 19.6975 12.1692 18.7636 12.4162 17.9492L10.5359 17.4109ZM9.51843 19.9455L7.73226 19.1593C7.63129 19.3766 7.54601 19.5118 7.48719 19.5886C7.42837 19.6661 7.41856 19.6555 7.47738 19.6178L8.56453 21.2017L9.65073 22.7857C10.4448 22.2727 10.9536 21.4799 11.3036 20.7317L9.51843 19.9455ZM8.56453 21.2017L7.5411 19.5781C7.51856 19.5914 7.52542 19.5836 7.56071 19.5752C7.59698 19.5663 7.63913 19.5632 7.67835 19.5667L7.49307 21.4613L7.30681 23.3559C8.14202 23.4329 8.91845 23.2219 9.58703 22.8254L8.56453 21.2017ZM7.49307 21.4613L7.67835 19.5667C7.67737 19.5667 7.66364 19.5656 7.63129 19.5539C7.59894 19.5419 7.54306 19.5173 7.4666 19.4685L6.39316 21.0611L5.31972 22.6539C5.90203 23.0234 6.56864 23.2878 7.30681 23.3559L7.49307 21.4613ZM6.39316 21.0611L7.4666 19.4685C7.18035 19.2868 6.92842 19.098 6.70883 18.9038L5.38932 20.3114L4.06983 21.719C4.45411 22.0586 4.8727 22.3697 5.31972 22.6539L6.39316 21.0611ZM5.38932 20.3114L7.34602 20.1938C7.33425 20.0051 7.34798 19.7047 7.42542 19.2664L5.49225 18.9469L3.56006 18.6273C3.45125 19.2473 3.39635 19.8567 3.43262 20.4291L5.38932 20.3114ZM5.49225 18.9469L7.41366 19.3278C7.52443 18.798 7.64796 18.2482 7.78423 17.6785L5.87359 17.2497L3.96395 16.8208C3.82083 17.4201 3.69044 18.0019 3.57183 18.5661L5.49225 18.9469ZM5.87359 17.2497L7.78423 17.6785C7.92149 17.102 8.05574 16.5561 8.1871 16.0406L6.28336 15.5847L4.37961 15.129C4.24334 15.6642 4.10512 16.2282 3.96395 16.8208L5.87359 17.2497ZM6.28336 15.5847L8.18905 16.0309C8.32828 15.4728 8.44002 14.9901 8.52435 14.5877L6.60197 14.2103L4.68056 13.8329C4.60998 14.1731 4.509 14.6066 4.37764 15.1386L6.28336 15.5847ZM6.60197 14.2103L7.92149 15.618C8.17932 15.3904 8.46455 15.1152 8.68414 14.8132L7.08134 13.7169L5.47853 12.6206C5.50205 12.5892 5.50402 12.5917 5.46383 12.6329C5.42658 12.671 5.36873 12.7271 5.28247 12.8027L6.60197 14.2103ZM7.08134 13.7169L8.68414 14.8132C8.92826 14.4771 9.09879 14.1019 9.19099 13.7006L7.2774 13.287L5.36384 12.8733C5.38443 12.7841 5.42461 12.6953 5.47853 12.6206L7.08134 13.7169ZM7.2774 13.287L9.12628 13.9211C9.22922 13.6371 9.30172 13.3345 9.35662 13.0401L7.42738 12.7033L5.49716 12.3666C5.46481 12.542 5.43736 12.6285 5.42854 12.6527L7.2774 13.287ZM7.42738 12.7033L9.35662 13.0401C9.38309 12.8964 9.44679 12.6353 9.56546 12.2269L7.67835 11.7109L5.79125 11.1948C5.66185 11.6397 5.55794 12.0404 5.49716 12.3666L7.42738 12.7033ZM7.67835 11.7109L9.56546 12.2269C9.71248 11.7178 9.75468 11.0932 9.50075 10.4566L7.67246 11.1428L5.84321 11.829C5.72164 11.5231 5.76674 11.2772 5.79125 11.1948L7.67835 11.7109ZM7.67246 11.1428L9.58212 10.7145C9.60953 10.8296 9.62526 11.0348 9.53899 11.2709L7.6911 10.6368L5.84222 10.0025C5.6442 10.5469 5.64715 11.0895 5.76184 11.5711L7.67246 11.1428ZM7.6911 10.6368L9.35374 11.6451C9.17721 11.9191 8.90864 12.1346 8.59786 12.2511L7.89105 10.476L7.18428 8.70092C6.70294 8.8814 6.30101 9.20403 6.02751 9.62842L7.6911 10.6368ZM7.89105 10.476L8.44399 12.3019C9.14193 12.1028 9.73895 11.5867 9.97225 10.8338L8.09397 10.2857L6.21671 9.73753C6.28827 9.5076 6.42747 9.25423 6.65981 9.03617C6.88919 8.82152 7.13918 8.70697 7.33818 8.65011L7.89105 10.476ZM8.09397 10.2857L9.90559 11.015C10.0497 10.6773 10.2752 10.0537 10.1409 9.35192L8.21358 9.69927L6.28533 10.0466C6.24024 9.80966 6.26964 9.63916 6.28042 9.58457C6.29219 9.52386 6.30297 9.51055 6.28336 9.55644L8.09397 10.2857ZM8.21358 9.69927L10.1517 9.41445C10.185 9.6248 10.1605 9.79832 10.1301 9.91287C10.1007 10.0228 10.0654 10.0844 10.0605 10.0931L8.35966 9.1452L6.65981 8.19736C6.41571 8.61034 6.15887 9.23896 6.27454 9.98409L8.21358 9.69927ZM8.35966 9.1452L9.91642 10.302C10.1369 10.0229 10.3448 9.67266 10.533 9.32674L8.79884 8.43893L7.06467 7.55108C6.98919 7.68994 6.92645 7.7964 6.87842 7.87511C6.82646 7.95768 6.80195 7.98943 6.80293 7.98845L8.35966 9.1452ZM8.79884 8.43893L10.5066 9.37294C10.8673 8.75135 11.0565 8.06436 11.0486 7.34124L9.08898 7.36051L7.1284 7.37978C7.1284 7.41411 7.12447 7.44606 7.09017 7.50492L8.79884 8.43893ZM9.08898 7.36051L10.1409 8.96654C10.4438 8.77955 10.7261 8.56535 10.9888 8.32794L9.65369 6.93469L8.31753 5.54143C8.22043 5.62927 8.12637 5.69896 8.03713 5.75448L9.08898 7.36051ZM9.65369 6.93469L10.9888 8.32794C11.1173 8.21256 11.232 8.12152 11.3339 8.05045L10.1879 6.50606L9.04195 4.96168C8.79098 5.13692 8.54982 5.33163 8.31753 5.54143L9.65369 6.93469ZM10.1879 6.50606L11.3457 8.04168C11.4162 7.99185 11.4711 7.96501 11.5123 7.94974L10.8046 6.17468L10.0978 4.39959C9.71248 4.54421 9.35662 4.73828 9.02918 4.97042L10.1879 6.50606ZM10.8046 6.17468L11.4437 7.97393C11.4006 7.9883 11.3731 7.99147 11.3682 7.99193C11.3643 7.9923 11.382 7.99026 11.4271 7.99442L11.6123 6.09982L11.7976 4.20524C11.28 4.15744 10.7203 4.19019 10.1664 4.37541L10.8046 6.17468ZM11.6123 6.09982L9.9242 7.06853C10.0036 7.19862 10.0301 7.27164 10.036 7.29167L11.9172 6.75522L13.7984 6.21878C13.6808 5.82912 13.5034 5.46518 13.2994 5.1311L11.6123 6.09982ZM11.9172 6.75522L10.036 7.29167C10.0889 7.46545 10.132 7.62318 10.1654 7.7657L12.076 7.33737L13.9857 6.90907C13.9327 6.68505 13.87 6.45471 13.7984 6.21878L11.9172 6.75522ZM12.076 7.33737L10.2174 7.94233C10.3281 8.26511 10.4761 8.57216 10.6585 8.86144L12.3319 7.86876L14.0043 6.87606C13.9739 6.82709 13.9513 6.77985 13.9347 6.73244L12.076 7.33737ZM12.3319 7.86876L10.6585 8.86144C10.9693 9.35366 11.3947 9.70146 11.8015 9.94788L12.8397 8.33383L13.8788 6.71979C13.8533 6.70443 13.8592 6.705 13.8838 6.72693C13.9082 6.74952 13.9553 6.79777 14.0043 6.87606L12.3319 7.86876ZM8.17145 24.8993L6.23338 25.1841C6.25004 25.2914 6.25788 25.3763 6.26082 25.4414L8.2195 25.3517L10.1781 25.262C10.1674 25.047 10.1439 24.8304 10.1105 24.6144L8.17145 24.8993ZM8.2195 25.3517L6.26082 25.4414C6.26768 25.5689 6.27258 25.7076 6.27749 25.8578L8.2371 25.8014L10.1967 25.7451C10.1918 25.5757 10.185 25.4146 10.1781 25.262L8.2195 25.3517ZM8.2371 25.8014L6.41081 25.1078C6.27062 25.4566 6.13141 25.7529 5.99613 26.0019L7.73031 26.8897L9.46447 27.7776C9.68016 27.3817 9.87818 26.9526 10.0625 26.495L8.2371 25.8014ZM7.73031 26.8897L6.00986 25.9779C5.97456 26.0403 5.94809 26.0866 5.92947 26.1189C5.91966 26.135 5.91379 26.1451 5.91085 26.1504C5.90693 26.1574 5.91085 26.1508 5.91967 26.1365L7.58228 27.1449L9.24487 28.1532C9.30569 28.0589 9.3841 27.9213 9.45169 27.8015L7.73031 26.8897ZM7.58228 27.1449L5.91967 26.1365C5.88634 26.1883 5.64029 26.5483 5.59127 27.0508L7.54307 27.2309L9.49483 27.4109C9.46742 27.6876 9.38309 27.8873 9.34782 27.9645C9.30468 28.0585 9.26349 28.1242 9.24487 28.1532L7.58228 27.1449ZM7.54307 27.2309L5.59127 27.0508C5.54226 27.5533 5.7138 27.9518 5.73635 28.0087L7.56464 27.3225L9.39392 26.6363C9.40661 26.6681 9.4341 26.7402 9.45761 26.8403C9.47724 26.9225 9.52232 27.1343 9.49483 27.4109L7.54307 27.2309ZM7.56464 27.3225L6.05397 28.5349C5.88144 28.3323 5.78929 28.1382 5.74224 28.0196C5.69322 27.8949 5.66675 27.7894 5.65303 27.7215C5.62558 27.5904 5.62166 27.4905 5.62068 27.4549C5.61872 27.3792 5.6246 27.3435 5.62068 27.3821L7.57247 27.5621L9.52427 27.7422C9.53408 27.6427 9.54483 27.498 9.54 27.3423C9.53797 27.2668 9.53112 27.1343 9.49881 26.9777C9.47817 26.8763 9.3968 26.4867 9.07629 26.1102L7.56464 27.3225ZM7.57247 27.5621L5.84222 26.6672L5.65499 27.0085L7.38523 27.9033L9.11546 28.7982L9.30273 28.457L7.57247 27.5621ZM7.38523 27.9033L5.90497 26.6556C5.96182 26.5911 6.05495 26.5156 6.17945 26.4609L6.98723 28.1952L7.79402 29.9294C8.2195 29.743 8.57731 29.473 8.8655 29.1509L7.38523 27.9033ZM6.98723 28.1952L6.05888 26.5189C6.04025 26.5286 6.0128 26.541 5.97163 26.5535L6.5706 28.3658L7.16858 30.1782C7.42444 30.0986 7.67442 29.9971 7.91558 29.8714L6.98723 28.1952ZM6.5706 28.3658L5.64224 26.6896C5.80105 26.6064 5.94712 26.569 6.05495 26.5532L6.34807 28.4349L6.64118 30.3166C6.91567 30.2764 7.20976 30.1928 7.49895 30.0421L6.5706 28.3658ZM6.34807 28.4349L5.41972 26.7586C5.27071 26.8365 5.10209 26.9385 4.93543 27.0723L6.18436 28.5393L7.43327 30.0062C7.35582 30.0686 7.29603 30.101 7.27642 30.1112L6.34807 28.4349ZM6.18436 28.5393L4.33549 27.9051L4.20903 28.2519L6.0579 28.8861L7.90678 29.5203L8.03222 29.1734L6.18436 28.5393ZM6.0579 28.8861L5.96575 26.985L5.53245 27.0049L5.62558 28.9059L5.71773 30.8069L6.15005 30.7871L6.0579 28.8861ZM5.62558 28.9059L5.33149 27.0243C5.1168 27.0557 4.98347 27.0545 4.91485 27.0482L4.72957 28.9427L4.54332 30.8373C5.00309 30.8797 5.46677 30.8539 5.91869 30.7876L5.62558 28.9059ZM4.72957 28.9427L4.91485 27.0482L4.57958 27.0172L4.39333 28.9118L4.20805 30.8063L4.54332 30.8373L4.72957 28.9427ZM4.39333 28.9118L5.84909 27.6369C5.62068 27.3914 5.42755 27.1878 5.27462 27.0338L3.86299 28.3551L2.45231 29.6763C2.56113 29.7855 2.72092 29.9529 2.93757 30.1866L4.39333 28.9118ZM3.86299 28.3551L5.27462 27.0338C5.04229 26.8002 4.78741 26.5955 4.51783 26.4158L3.40713 27.9844L2.29742 29.5531C2.37487 29.6044 2.4229 29.6469 2.45231 29.6763L3.86299 28.3551ZM3.40713 27.9844L5.18934 27.191C5.12758 27.06 5.09327 26.9668 5.07563 26.9075C5.05798 26.8467 5.06288 26.8414 5.06484 26.8812L3.10618 26.971L1.14849 27.0607C1.1779 27.6806 1.38573 28.2699 1.62493 28.7779L3.40713 27.9844ZM3.10618 26.971L5.06386 26.8609C5.05308 26.6824 5.03347 26.4832 4.99426 26.2845C4.96093 26.12 4.88446 25.7924 4.67566 25.461L3.00325 26.4536L1.33084 27.4464C1.24359 27.3077 1.1985 27.1912 1.17889 27.1318C1.15634 27.0677 1.14752 27.023 1.14458 27.0082C1.1387 26.982 1.14458 26.9992 1.14947 27.081L3.10618 26.971ZM3.00325 26.4536L4.51489 25.2413L4.12864 24.7874L2.61701 25.9998L1.10536 27.2122L1.49161 27.666L3.00325 26.4536ZM2.61701 25.9998L3.63946 27.6235L4.03159 27.3909L3.00913 25.7672L1.98666 24.1435L1.59454 24.3762L2.61701 25.9998ZM3.00913 25.7672L4.758 24.9077L4.44725 24.3115L2.69837 25.1709L0.948517 26.0304L1.25927 26.6266L3.00913 25.7672ZM2.69837 25.1709L3.72084 26.7946C3.9767 26.6427 4.13354 26.5543 4.21294 26.513L3.28459 24.8367L2.35624 23.1605C2.17586 23.2545 1.94255 23.3889 1.67591 23.5473L2.69837 25.1709ZM3.28459 24.8367L4.21294 26.513C4.42764 26.4012 4.65017 26.2645 4.86192 26.095L3.61299 24.628L2.36409 23.1611C2.38173 23.1467 2.39153 23.1406 2.38957 23.1419C2.3876 23.1431 2.37781 23.1495 2.35624 23.1605L3.28459 24.8367ZM3.61299 24.628L4.86192 26.095C5.0717 25.9266 5.26188 25.7403 5.43344 25.5487L3.95218 24.301L2.47192 23.0532C2.41311 23.1192 2.37683 23.1511 2.36409 23.1611L3.61299 24.628ZM3.95218 24.301L5.43344 25.5487C5.56088 25.4059 5.75497 25.1826 6.01083 24.8869L4.50705 23.6651L3.00423 22.4434C2.75033 22.7379 2.57486 22.9385 2.47192 23.0532L3.95218 24.301ZM4.50705 23.6651L6.00692 24.8915L6.31866 24.532L4.81976 23.3055L3.31989 22.0791L3.00815 22.4387L4.50705 23.6651ZM4.81976 23.3055L3.67574 24.8514L4.02178 25.0923L5.16483 23.5466L6.30885 22.0008L5.9628 21.7599L4.81976 23.3055ZM5.16483 23.5466L4.00218 25.0785C4.36882 25.3411 4.80898 25.4938 5.0766 25.5803L5.69714 23.7749L6.31669 21.9693C6.27258 21.955 6.23729 21.9429 6.21082 21.9332C6.18338 21.9233 6.16867 21.917 6.1628 21.9147C6.15691 21.912 6.16769 21.9166 6.19122 21.9289C6.20396 21.9354 6.22161 21.9453 6.24416 21.9586C6.26572 21.9719 6.29415 21.9904 6.32846 22.0146L5.16483 23.5466ZM5.69714 23.7749L5.23738 25.6249C5.4952 25.6853 5.69812 25.7381 5.85203 25.7832L6.41669 23.9608L6.98135 22.1383C6.73725 22.0669 6.45982 21.9958 6.15593 21.9248L5.69714 23.7749ZM6.41669 23.9608L5.65793 25.7154C6.03143 25.8675 6.40297 25.9989 6.77451 26.1073L7.33916 24.2848L7.90382 22.4623C7.67639 22.396 7.43425 22.3113 7.17643 22.2062L6.41669 23.9608ZM7.33916 24.2848L6.91273 26.1424C6.97645 26.156 6.81763 26.1358 6.63726 25.9476L8.0724 24.6512L9.5076 23.3548C8.99297 22.817 8.34494 22.5525 7.76559 22.4272L7.33916 24.2848ZM8.0724 24.6512L6.24416 25.3374L6.34317 25.5855L8.17145 24.8993L10.0007 24.2129L9.9017 23.9649L8.0724 24.6512Z" fill="#0D1017"/>
</g>
<mask id="mask2_507_1960" style="mask-type:luminance" maskUnits="userSpaceOnUse" x="74" y="14" width="18" height="18">
<path d="M91.886 14.3672H74.7549V31.0013H91.886V14.3672Z" fill="white"/>
<path d="M79.3269 21.0647L80.8056 16.7871L84.8758 18.1135L84.59 18.9388L81.3701 17.8893L80.1764 21.3416L79.3269 21.0647ZM87.1247 23.6059L88.3176 20.1536L85.0977 19.1042L85.3827 18.2789L89.4529 19.6053L87.9742 23.8829L87.1247 23.6059ZM77.6494 25.9168L79.1283 21.6391L79.9779 21.9162L78.7849 25.3684L82.0048 26.4179L81.7198 27.2433L77.6494 25.9168ZM82.2267 27.4086L82.5125 26.5833L85.7324 27.6327L86.9261 24.1805L87.7756 24.4574L86.2969 28.735L82.2267 27.4086Z" fill="black"/>
</mask>
<g mask="url(#mask2_507_1960)">
<path d="M79.3269 21.0648L77.6172 20.5074C77.3002 21.4245 77.8088 22.4175 78.753 22.7253L79.3269 21.0648ZM80.8057 16.7873L81.3796 15.1266C80.4358 14.8189 79.4126 15.3128 79.0957 16.2299L80.8057 16.7873ZM84.8759 18.1137L86.5859 18.671C86.9036 17.7539 86.3943 16.7609 85.4498 16.4531L84.8759 18.1137ZM84.5909 18.939L84.017 20.5995C84.9615 20.9073 85.9839 20.4133 86.3009 19.4963L84.5909 18.939ZM81.3702 17.8895L81.9449 16.2289C81.0003 15.9211 79.9771 16.415 79.6602 17.3322L81.3702 17.8895ZM80.1773 21.3418L79.6034 23.0023C80.5479 23.3101 81.5703 22.8161 81.8873 21.8992L80.1773 21.3418ZM79.3269 21.0648L81.0377 21.6221L82.5164 17.3446L80.8057 16.7873L79.0957 16.2299L77.6172 20.5074L79.3269 21.0648ZM80.8057 16.7873L80.2318 18.4477L84.302 19.7742L84.8759 18.1137L85.4498 16.4531L81.3796 15.1266L80.8057 16.7873ZM84.8759 18.1137L83.1659 17.5564L82.8809 18.3816L84.5909 18.939L86.3009 19.4963L86.5859 18.671L84.8759 18.1137ZM84.5909 18.939L85.1648 17.2784L81.9449 16.2289L81.3702 17.8895L80.7963 19.55L84.017 20.5995L84.5909 18.939ZM81.3702 17.8895L79.6602 17.3322L78.4673 20.7844L80.1773 21.3418L81.8873 21.8992L83.081 18.4469L81.3702 17.8895ZM80.1773 21.3418L80.7511 19.6812L79.9016 19.4043L79.3269 21.0648L78.753 22.7253L79.6034 23.0023L80.1773 21.3418ZM87.1247 23.606L85.4147 23.0487C85.0978 23.9658 85.6063 24.9588 86.5508 25.2666L87.1247 23.606ZM88.3184 20.1538L90.0284 20.7111C90.3454 19.794 89.8369 18.801 88.8923 18.4932L88.3184 20.1538ZM85.0978 19.1043L83.3878 18.547C83.0709 19.4641 83.5793 20.457 84.5239 20.7648L85.0978 19.1043ZM85.3836 18.279L85.9575 16.6185C85.0129 16.3106 83.9905 16.8046 83.6736 17.7217L85.3836 18.279ZM89.4538 19.6055L91.1638 20.1628C91.4807 19.2458 90.9722 18.2527 90.0277 17.9449L89.4538 19.6055ZM87.975 23.8831L87.4011 25.5435C88.3457 25.8514 89.3681 25.3575 89.685 24.4404L87.975 23.8831ZM87.1247 23.606L88.8355 24.1634L90.0284 20.7111L88.3184 20.1538L86.6084 19.5964L85.4147 23.0487L87.1247 23.606ZM88.3184 20.1538L88.8923 18.4932L85.6725 17.4437L85.0978 19.1043L84.5239 20.7648L87.7446 21.8144L88.3184 20.1538ZM85.0978 19.1043L86.8086 19.6616L87.0936 18.8364L85.3836 18.279L83.6736 17.7217L83.3878 18.547L85.0978 19.1043ZM85.3836 18.279L84.8097 19.9396L88.8799 21.266L89.4538 19.6055L90.0277 17.9449L85.9575 16.6185L85.3836 18.279ZM89.4538 19.6055L87.7438 19.0481L86.265 23.3257L87.975 23.8831L89.685 24.4404L91.1638 20.1628L89.4538 19.6055ZM87.975 23.8831L88.5489 22.2225L87.6994 21.9454L87.1247 23.606L86.5508 25.2666L87.4011 25.5435L87.975 23.8831ZM77.6501 25.9169L75.9399 25.3596C75.6229 26.2767 76.1317 27.2696 77.0762 27.5774L77.6501 25.9169ZM79.1291 21.6393L79.703 19.9788C78.7585 19.6709 77.7356 20.1649 77.4185 21.082L79.1291 21.6393ZM79.9787 21.9163L81.6887 22.4736C82.0056 21.5565 81.4971 20.5636 80.5526 20.2558L79.9787 21.9163ZM78.7857 25.3686L77.0752 24.8112C76.7581 25.7283 77.2668 26.7213 78.2111 27.0292L78.7857 25.3686ZM82.0056 26.418L83.7156 26.9754C84.0325 26.0583 83.5241 25.0653 82.5795 24.7575L82.0056 26.418ZM81.7206 27.2434L81.1467 28.9039C82.0905 29.2117 83.1137 28.7178 83.4306 27.8006L81.7206 27.2434ZM77.6501 25.9169L79.3604 26.4743L80.8391 22.1966L79.1291 21.6393L77.4185 21.082L75.9399 25.3596L77.6501 25.9169ZM79.1291 21.6393L78.5545 23.2999L79.4048 23.5769L79.9787 21.9163L80.5526 20.2558L79.703 19.9788L79.1291 21.6393ZM79.9787 21.9163L78.2687 21.3589L77.0752 24.8112L78.7857 25.3686L80.4957 25.9259L81.6887 22.4736L79.9787 21.9163ZM78.7857 25.3686L78.2111 27.0292L81.4317 28.0786L82.0056 26.418L82.5795 24.7575L79.3596 23.708L78.7857 25.3686ZM82.0056 26.418L80.2956 25.8607L80.0098 26.686L81.7206 27.2434L83.4306 27.8006L83.7156 26.9754L82.0056 26.418ZM81.7206 27.2434L82.2945 25.5828L78.2243 24.2563L77.6501 25.9169L77.0762 27.5774L81.1467 28.9039L81.7206 27.2434ZM82.2275 27.4088L80.5175 26.8514C80.2006 27.7684 80.7091 28.7615 81.6536 29.0692L82.2275 27.4088ZM82.5125 26.5834L83.0872 24.9229C82.1427 24.6151 81.1195 25.109 80.8025 26.026L82.5125 26.5834ZM85.7332 27.6329L85.1593 29.2934C86.1039 29.6012 87.1263 29.1073 87.4432 28.1902L85.7332 27.6329ZM86.9261 24.1806L87.5008 22.5201C86.5563 22.2123 85.5331 22.7062 85.2161 23.6232L86.9261 24.1806ZM87.7765 24.4576L89.4865 25.015C89.8034 24.0978 89.2949 23.1048 88.3504 22.7971L87.7765 24.4576ZM86.2977 28.7351L85.7239 30.3957C86.6684 30.7035 87.6908 30.2096 88.0077 29.2925L86.2977 28.7351ZM82.2275 27.4088L83.9375 27.966L84.2233 27.1407L82.5125 26.5834L80.8025 26.026L80.5175 26.8514L82.2275 27.4088ZM82.5125 26.5834L81.9386 28.2439L85.1593 29.2934L85.7332 27.6329L86.3071 25.9723L83.0872 24.9229L82.5125 26.5834ZM85.7332 27.6329L87.4432 28.1902L88.6369 24.7379L86.9261 24.1806L85.2161 23.6232L84.0232 27.0755L85.7332 27.6329ZM86.9261 24.1806L86.3523 25.8411L87.2026 26.1182L87.7765 24.4576L88.3504 22.7971L87.5008 22.5201L86.9261 24.1806ZM87.7765 24.4576L86.0665 23.9002L84.5877 28.1779L86.2977 28.7351L88.0077 29.2925L89.4865 25.015L87.7765 24.4576ZM86.2977 28.7351L86.8716 27.0746L82.8014 25.7481L82.2275 27.4088L81.6536 29.0692L85.7239 30.3957L86.2977 28.7351Z" fill="#0D1017"/>
</g>
<mask id="mask3_507_1960" style="mask-type:luminance" maskUnits="userSpaceOnUse" x="15" y="-3" width="23" height="22">
<path d="M37.3775 -2.26758H15.5742V18.9032H37.3775V-2.26758Z" fill="white"/>
<path d="M21.3347 6.16588L21.6698 5.22517L25.4528 6.42139L26.8546 2.48633L27.8531 2.80206L26.1162 7.67784L21.3347 6.16588ZM27.2747 8.04417L29.0116 3.16841L30.0101 3.48414L28.6083 7.41921L32.3912 8.6154L32.0561 9.55613L27.2747 8.04417ZM23.0422 13.188L24.4441 9.25294L20.6611 8.05672L20.9963 7.11603L25.7777 8.62802L24.0407 13.5037L23.0422 13.188ZM25.1993 13.8701L26.9362 8.99435L31.7176 10.5063L31.3824 11.447L27.5996 10.2508L26.1977 14.1859L25.1993 13.8701Z" fill="black"/>
</mask>
<g mask="url(#mask3_507_1960)">
<path d="M21.3342 6.16686L19.3253 5.53158C18.9529 6.57693 19.5505 7.70879 20.66 8.05961L21.3342 6.16686ZM21.6694 5.22615L22.3437 3.33338C21.2341 2.98253 20.0328 3.54552 19.6604 4.59087L21.6694 5.22615ZM25.4523 6.42238L24.778 8.3151C25.8876 8.666 27.0889 8.10301 27.4613 7.05765L25.4523 6.42238ZM26.8541 2.48731L27.5285 0.594545C26.419 0.243685 25.2175 0.806688 24.8452 1.85203L26.8541 2.48731ZM27.8526 2.80304L29.8616 3.43832C30.234 2.39297 29.6364 1.26113 28.527 0.910273L27.8526 2.80304ZM26.1157 7.67884L25.4414 9.57158C26.5509 9.92241 27.7523 9.35942 28.1246 8.31412L26.1157 7.67884ZM21.3342 6.16686L23.3432 6.80213L23.6784 5.86143L21.6694 5.22615L19.6604 4.59087L19.3253 5.53158L21.3342 6.16686ZM21.6694 5.22615L20.9952 7.11892L24.778 8.3151L25.4523 6.42238L26.1267 4.5296L22.3437 3.33338L21.6694 5.22615ZM25.4523 6.42238L27.4613 7.05765L28.8631 3.12258L26.8541 2.48731L24.8452 1.85203L23.4433 5.7871L25.4523 6.42238ZM26.8541 2.48731L26.1799 4.38008L27.1784 4.69581L27.8526 2.80304L28.527 0.910273L27.5285 0.594545L26.8541 2.48731ZM27.8526 2.80304L25.8436 2.16776L24.1067 7.04353L26.1157 7.67884L28.1246 8.31412L29.8616 3.43832L27.8526 2.80304ZM26.1157 7.67884L26.7899 5.78604L22.0086 4.27408L21.3342 6.16686L20.66 8.05961L25.4414 9.57158L26.1157 7.67884ZM27.2742 8.04517L25.2652 7.40989C24.8929 8.4552 25.4904 9.58701 26.5999 9.93791L27.2742 8.04517ZM29.0112 3.16939L29.6855 1.27662C28.5759 0.925773 27.3746 1.48877 27.0021 2.53411L29.0112 3.16939ZM30.0096 3.48513L32.0186 4.1204C32.391 3.07506 31.7935 1.94322 30.6839 1.59236L30.0096 3.48513ZM28.6078 7.42019L26.5988 6.78492C26.2264 7.83029 26.824 8.96209 27.9334 9.313L28.6078 7.42019ZM32.3907 8.6164L34.3997 9.25168C34.7721 8.20637 34.1745 7.0745 33.0649 6.72364L32.3907 8.6164ZM32.0556 9.55707L31.3813 11.4499C32.4909 11.8008 33.6922 11.2378 34.0645 10.1924L32.0556 9.55707ZM27.2742 8.04517L29.2832 8.68037L31.0201 3.80467L29.0112 3.16939L27.0021 2.53411L25.2652 7.40989L27.2742 8.04517ZM29.0112 3.16939L28.3369 5.06216L29.3352 5.37789L30.0096 3.48513L30.6839 1.59236L29.6855 1.27662L29.0112 3.16939ZM30.0096 3.48513L28.0006 2.84985L26.5988 6.78492L28.6078 7.42019L30.6167 8.05546L32.0186 4.1204L30.0096 3.48513ZM28.6078 7.42019L27.9334 9.313L31.7164 10.5092L32.3907 8.6164L33.0649 6.72364L29.2821 5.52742L28.6078 7.42019ZM32.3907 8.6164L30.3817 7.98113L30.0466 8.92187L32.0556 9.55707L34.0645 10.1924L34.3997 9.25168L32.3907 8.6164ZM32.0556 9.55707L32.7299 7.66433L27.9486 6.1524L27.2742 8.04517L26.5999 9.93791L31.3813 11.4499L32.0556 9.55707ZM23.0417 13.189L21.0328 12.5538C20.6603 13.5991 21.258 14.7309 22.3675 15.0818L23.0417 13.189ZM24.4436 9.25387L26.4525 9.88922C26.825 8.84391 26.2274 7.71204 25.1179 7.36118L24.4436 9.25387ZM20.6607 8.05772L18.6517 7.42245C18.2793 8.46783 18.8769 9.59963 19.9864 9.95046L20.6607 8.05772ZM20.9958 7.11702L21.6701 5.22426C20.5605 4.8734 19.3592 5.43639 18.9868 6.48174L20.9958 7.11702ZM25.7772 8.62896L27.7862 9.26431C28.1586 8.21892 27.5609 7.08707 26.4514 6.73621L25.7772 8.62896ZM24.0402 13.5047L23.366 15.3975C24.4755 15.7483 25.6768 15.1854 26.0492 14.14L24.0402 13.5047ZM23.0417 13.189L25.0507 13.8243L26.4525 9.88922L24.4436 9.25387L22.4346 8.61875L21.0328 12.5538L23.0417 13.189ZM24.4436 9.25387L25.1179 7.36118L21.335 6.16496L20.6607 8.05772L19.9864 9.95046L23.7693 11.1467L24.4436 9.25387ZM20.6607 8.05772L22.6697 8.693L23.0047 7.75226L20.9958 7.11702L18.9868 6.48174L18.6517 7.42245L20.6607 8.05772ZM20.9958 7.11702L20.3215 9.0098L25.1028 10.5217L25.7772 8.62896L26.4514 6.73621L21.6701 5.22426L20.9958 7.11702ZM25.7772 8.62896L23.7682 7.99368L22.0312 12.8695L24.0402 13.5047L26.0492 14.14L27.7862 9.26431L25.7772 8.62896ZM24.0402 13.5047L24.7146 11.612L23.716 11.2962L23.0417 13.189L22.3675 15.0818L23.366 15.3975L24.0402 13.5047ZM25.1988 13.8711L23.1898 13.2358C22.8174 14.2812 23.415 15.413 24.5244 15.7639L25.1988 13.8711ZM26.9357 8.99536L27.61 7.10256C26.5004 6.75171 25.2991 7.31471 24.9268 8.36009L26.9357 8.99536ZM31.7171 10.5073L33.7261 11.1425C34.0984 10.0972 33.5009 8.96542 32.3914 8.61451L31.7171 10.5073ZM31.3819 11.448L30.7078 13.3407C31.8172 13.6916 33.0185 13.1286 33.391 12.0833L31.3819 11.448ZM27.5991 10.2518L28.2733 8.35903C27.1638 8.00812 25.9625 8.57119 25.5901 9.61649L27.5991 10.2518ZM26.1972 14.1869L25.523 16.0795C26.6324 16.4304 27.8338 15.8675 28.2062 14.8222L26.1972 14.1869ZM25.1988 13.8711L27.2078 14.5064L28.9447 9.63063L26.9357 8.99536L24.9268 8.36009L23.1898 13.2358L25.1988 13.8711ZM26.9357 8.99536L26.2614 10.8881L31.0428 12.4001L31.7171 10.5073L32.3914 8.61451L27.61 7.10256L26.9357 8.99536ZM31.7171 10.5073L29.7082 9.87206L29.373 10.8127L31.3819 11.448L33.391 12.0833L33.7261 11.1425L31.7171 10.5073ZM31.3819 11.448L32.0562 9.55518L28.2733 8.35903L27.5991 10.2518L26.9248 12.1445L30.7078 13.3407L31.3819 11.448ZM27.5991 10.2518L25.5901 9.61649L24.1883 13.5515L26.1972 14.1869L28.2062 14.8222L29.608 10.887L27.5991 10.2518ZM26.1972 14.1869L26.8715 12.2941L25.873 11.9784L25.1988 13.8711L24.5244 15.7639L25.523 16.0795L26.1972 14.1869Z" fill="#0D1017"/>
</g>
<path d="M35.7368 12.1212C35.3059 12.1212 34.8405 12.1547 34.3407 12.2216C33.8408 12.2718 33.3495 12.3304 32.8669 12.3973C32.5222 12.4475 32.1861 12.4894 31.8586 12.5229C31.5484 12.5563 31.2639 12.5814 31.0054 12.5982C30.8848 12.9664 30.7641 13.2928 30.6434 13.5773C30.5227 13.8618 30.3935 14.138 30.2556 14.4058C30.1177 14.6903 29.9884 14.9832 29.8678 15.2844C29.7644 15.5689 29.6609 15.8786 29.5575 16.2133C29.3852 16.4811 29.2386 16.7321 29.118 16.9664C29.0146 17.184 28.9284 17.4351 28.8594 17.7196C28.6526 17.9706 28.4975 18.2384 28.394 18.5229C28.2906 18.7907 28.2131 19.0251 28.1614 19.2259L28.0579 19.5271C27.9545 19.6275 27.8942 19.7112 27.8769 19.7781C27.8597 19.8284 27.8166 19.8786 27.7477 19.9288C27.7304 20.1129 27.6701 20.297 27.5667 20.4811C27.5322 20.5648 27.5063 20.6485 27.4891 20.7322C27.4718 20.7991 27.4633 20.8493 27.4633 20.8828C27.4633 21.0501 27.4201 21.1589 27.334 21.2091C27.3512 21.2928 27.3512 21.3848 27.334 21.4853C27.3167 21.569 27.2995 21.6527 27.2823 21.7364C27.2306 21.9372 27.2133 22.0962 27.2306 22.2134C27.2823 22.2803 27.3254 22.3389 27.3599 22.3891C27.4116 22.4393 27.446 22.5062 27.4633 22.5899C27.5667 22.6568 27.6442 22.6987 27.6959 22.7154C27.7649 22.7656 27.8684 22.8242 28.0062 22.8911L28.2389 23.1422C28.325 23.6276 28.2475 24.0125 28.0062 24.297C27.7477 24.615 27.3082 24.774 26.6876 24.774H26.3773C26.2912 24.6903 26.2395 24.6234 26.2222 24.5732C26.0843 24.523 25.9723 24.4811 25.8861 24.4476C25.7999 24.4142 25.7224 24.3472 25.6534 24.2468C25.4293 24.1464 25.2484 24.0627 25.1105 23.9958L24.8778 23.8703C24.8778 23.6862 24.8778 23.5858 24.8778 23.569C24.7571 23.4184 24.6623 23.251 24.5933 23.0669C24.5416 22.8828 24.4986 22.6987 24.4641 22.5146C24.4296 22.364 24.3865 22.2217 24.3348 22.0878C24.3003 21.954 24.2486 21.8368 24.1797 21.7364C24.1452 20.7656 24.2401 19.9455 24.4641 19.2761C24.6882 18.6066 24.9209 17.9623 25.1622 17.343C25.3001 17.0082 25.438 16.6735 25.5759 16.3388C25.7137 15.9874 25.8344 15.6275 25.9378 15.2593L26.1705 15.0083C26.2912 14.7405 26.386 14.5229 26.455 14.3556C26.5411 14.1714 26.6273 13.9873 26.7135 13.8032C26.7652 13.6861 26.8082 13.5773 26.8427 13.4769C26.8944 13.3597 26.9375 13.2593 26.972 13.1756C26.8686 13.1756 26.7738 13.184 26.6876 13.2007C26.6014 13.2007 26.5152 13.2091 26.4291 13.2258C26.3256 13.2426 26.2308 13.2593 26.1446 13.276C26.0584 13.276 25.9723 13.276 25.8861 13.276C25.7654 13.276 25.6793 13.2677 25.6276 13.2509C25.438 13.3346 25.2311 13.3765 25.0071 13.3765H24.7485C24.6968 13.3765 24.645 13.3765 24.5933 13.3765C24.5589 13.3597 24.5244 13.3513 24.4899 13.3513C24.3176 13.3513 24.1797 13.3765 24.0763 13.4267C23.8694 13.4267 23.6712 13.4267 23.4816 13.4267H23.2231C23.1886 13.4267 23.1455 13.435 23.0937 13.4518C23.042 13.4518 22.999 13.4518 22.9645 13.4518C22.8439 13.4518 22.7146 13.4434 22.5767 13.4267C22.4388 13.3932 22.2923 13.3346 22.1371 13.2509C21.9303 12.9832 21.7924 12.8409 21.7235 12.8242L21.4908 12.5229C21.4735 12.4224 21.4477 12.3304 21.4132 12.2467C21.3788 12.1463 21.3443 12.0375 21.3098 11.9204C21.2409 11.753 21.1719 11.5773 21.1029 11.3932C21.0512 11.1923 21.0254 10.958 21.0254 10.6902C21.0426 10.5563 21.0771 10.4559 21.1288 10.389C21.1805 10.322 21.2236 10.2635 21.2581 10.2133L21.3356 9.83666L21.6718 9.86177H22.3957C22.9473 9.86177 23.5075 9.84506 24.0763 9.81156C24.645 9.76136 25.2311 9.71115 25.8344 9.66095C26.1791 9.62745 26.5239 9.59396 26.8686 9.56054C27.2306 9.52704 27.6012 9.49355 27.9803 9.46013C28.0493 9.30944 28.1182 9.16721 28.1872 9.03331L28.4457 8.9078C28.756 8.89109 28.9714 8.9329 29.0921 9.03331C29.23 9.11701 29.342 9.20071 29.4282 9.28433C29.8074 9.25091 30.1867 9.21742 30.5659 9.18392C30.9623 9.13372 31.3587 9.0752 31.7552 9.00821C32.3412 8.92451 32.9273 8.8492 33.5133 8.78229C34.1165 8.7153 34.694 8.68188 35.2456 8.68188C35.4869 8.68188 35.7196 8.69019 35.9437 8.70698C36.1678 8.72369 36.3746 8.74879 36.5642 8.78229L36.8227 8.958C36.8744 9.05841 36.9434 9.15051 37.0295 9.23413C37.133 9.31783 37.2364 9.40153 37.3398 9.48523C37.5467 9.66934 37.7535 9.88687 37.9603 10.1379C38.1672 10.389 38.2448 10.7572 38.1931 11.2426C38.0552 11.4434 37.9517 11.5606 37.8827 11.594L37.6501 11.8953L37.3916 11.8702C37.2881 11.8702 37.1933 11.8869 37.1071 11.9204C37.021 11.9371 36.9348 11.9622 36.8486 11.9957C36.7797 12.0292 36.7107 12.0626 36.6418 12.0961C36.5728 12.1128 36.4952 12.1296 36.4091 12.1463C36.2539 12.1463 36.1246 12.1463 36.0212 12.1463C35.935 12.1296 35.8403 12.1212 35.7368 12.1212ZM47.9921 16.6652C47.9748 16.866 47.9921 17.0585 48.0438 17.2426C48.0955 17.4267 48.1558 17.6108 48.2247 17.7949C48.3109 17.9623 48.3885 18.138 48.4574 18.3221C48.5264 18.5062 48.5781 18.6903 48.6125 18.8744C48.647 19.1087 48.647 19.3681 48.6125 19.6526C48.5781 19.9204 48.5178 20.1882 48.4316 20.456C48.3454 20.7071 48.2334 20.9414 48.0955 21.1589C47.9576 21.3597 47.7938 21.5104 47.6042 21.6108C47.3629 21.9121 47.0699 22.1464 46.7251 22.3138C46.3804 22.4811 46.0615 22.6819 45.7685 22.9162C45.5789 23.0334 45.3635 23.1171 45.1221 23.1673C44.8981 23.2176 44.6654 23.2678 44.424 23.318C44.2344 23.4184 44.0104 23.5272 43.7518 23.6443C43.4933 23.7447 43.2261 23.8452 42.9503 23.9456C42.6746 24.0292 42.3988 24.0962 42.123 24.1464C41.8472 24.1799 41.6059 24.1882 41.3991 24.1715C40.8819 24.3556 40.3735 24.4727 39.8736 24.5229C39.391 24.5899 38.8222 24.5564 38.1672 24.4225C37.5467 24.5062 36.9693 24.4811 36.4349 24.3472C35.9178 24.2133 35.4524 24.0041 35.0387 23.7196C34.6423 23.4184 34.2889 23.0669 33.9787 22.6652C33.6857 22.2468 33.4444 21.8117 33.2548 21.3597C33.1169 20.4058 33.1514 19.5439 33.3582 18.774C33.565 17.9874 33.858 17.2677 34.2372 16.615C34.6337 15.9455 35.0818 15.3346 35.5817 14.7823C36.0816 14.2133 36.5642 13.661 37.0295 13.1254C37.133 13.1589 37.2106 13.1589 37.2623 13.1254C37.3312 13.0752 37.3916 13.0166 37.4433 12.9497C37.495 12.866 37.5467 12.7907 37.5984 12.7237C37.6673 12.6568 37.7449 12.6149 37.831 12.5982C37.9517 12.3471 38.1241 12.163 38.3482 12.0459C38.5895 11.912 38.7791 11.7279 38.917 11.4936C39.0721 11.4601 39.2014 11.4099 39.3048 11.343C39.4082 11.276 39.503 11.2007 39.5892 11.117C39.6927 11.0333 39.7961 10.958 39.8995 10.891C40.0029 10.8074 40.1235 10.7488 40.2614 10.7153V10.4392C40.5717 10.3053 40.7957 10.1547 40.9337 9.98728C41.0888 9.80317 41.2697 9.58564 41.4766 9.33461C41.6317 9.31783 41.7524 9.30944 41.8386 9.30944C41.942 9.30944 42.0885 9.29273 42.2781 9.25923C42.416 9.02492 42.5367 8.8492 42.6401 8.73208C42.7608 8.61489 42.9331 8.48937 43.1572 8.35547C43.364 8.45588 43.5881 8.52287 43.8294 8.55636C44.088 8.58978 44.312 8.69859 44.5016 8.8827C44.5189 9.05002 44.5706 9.18392 44.6568 9.28433C44.7429 9.36803 44.8378 9.45173 44.9412 9.53543C45.0446 9.60235 45.1393 9.67766 45.2255 9.76136C45.329 9.84506 45.398 9.96218 45.4324 10.1128C45.5014 10.1296 45.5444 10.1212 45.5617 10.0877C45.5961 10.0543 45.6478 10.0459 45.7168 10.0626C45.7685 10.2969 45.8289 10.4559 45.8978 10.5396C45.9667 10.6065 46.0357 10.7488 46.1046 10.9664C46.0185 11.1337 45.9495 11.3095 45.8978 11.4936C45.8633 11.661 45.7599 11.7865 45.5876 11.8702C45.5703 11.9873 45.6048 12.0543 45.691 12.071C45.7772 12.071 45.8289 12.1128 45.8461 12.1965C45.8633 12.3471 45.8374 12.4559 45.7685 12.5229C46.1822 13.1756 46.5528 13.8701 46.8803 14.6066C47.2078 15.3262 47.5784 16.0125 47.9921 16.6652ZM44.7602 19.0502C44.8291 18.8661 44.9153 18.7154 45.0187 18.5982C45.1393 18.4811 45.2083 18.3053 45.2255 18.071C45.1393 17.9372 45.0876 17.8367 45.0704 17.7698C45.0532 17.6861 45.0446 17.5606 45.0446 17.3933C44.6654 16.8744 44.3379 16.3221 44.0621 15.7363C43.7863 15.1338 43.4761 14.5731 43.1313 14.0543C43.0968 14.1212 43.0365 14.1882 42.9503 14.2551C42.8642 14.3221 42.7693 14.3054 42.6659 14.2049C42.6314 14.3388 42.5712 14.4393 42.485 14.5062C42.3988 14.5564 42.304 14.5815 42.2006 14.5815C42.0971 14.5648 41.9851 14.5397 41.8644 14.5062C41.761 14.456 41.6662 14.3974 41.58 14.3305C41.0802 14.7154 40.5803 15.0919 40.0804 15.4601C39.5806 15.8284 39.1325 16.2551 38.736 16.7405C38.667 16.7739 38.624 16.7907 38.6067 16.7907C38.5895 16.7739 38.5378 16.7823 38.4516 16.8158C38.3137 17.1338 38.1414 17.4267 37.9345 17.6945C37.7449 17.9455 37.5553 18.2049 37.3657 18.4727C37.1761 18.7405 37.0123 19.0251 36.8744 19.3263C36.7365 19.6275 36.659 19.979 36.6418 20.3807C36.9348 20.615 37.2795 20.7573 37.6759 20.8075C38.0724 20.8577 38.4774 20.8661 38.8912 20.8326C39.322 20.7991 39.7357 20.7489 40.1321 20.682C40.5459 20.5983 40.925 20.5564 41.2697 20.5564C41.9937 20.3891 42.6142 20.1715 43.1313 19.9037C43.6484 19.6192 44.1914 19.3347 44.7602 19.0502ZM64.6426 16.6652C64.6253 16.866 64.6426 17.0585 64.6943 17.2426C64.746 17.4267 64.8064 17.6108 64.8753 17.7949C64.9615 17.9623 65.039 18.138 65.108 18.3221C65.1769 18.5062 65.2287 18.6903 65.2631 18.8744C65.2976 19.1087 65.2976 19.3681 65.2631 19.6526C65.2287 19.9204 65.1683 20.1882 65.0821 20.456C64.9959 20.7071 64.8839 20.9414 64.746 21.1589C64.6081 21.3597 64.4444 21.5104 64.2547 21.6108C64.0134 21.9121 63.7204 22.1464 63.3757 22.3138C63.031 22.4811 62.7121 22.6819 62.4191 22.9162C62.2295 23.0334 62.014 23.1171 61.7727 23.1673C61.5487 23.2176 61.3159 23.2678 61.0746 23.318C60.8851 23.4184 60.6609 23.5272 60.4024 23.6443C60.1438 23.7447 59.8767 23.8452 59.6009 23.9456C59.3251 24.0292 59.0493 24.0962 58.7736 24.1464C58.4977 24.1799 58.2564 24.1882 58.0496 24.1715C57.5325 24.3556 57.024 24.4727 56.5242 24.5229C56.0415 24.5899 55.4727 24.5564 54.8177 24.4225C54.1972 24.5062 53.6198 24.4811 53.0855 24.3472C52.5683 24.2133 52.103 24.0041 51.6893 23.7196C51.2929 23.4184 50.9395 23.0669 50.6293 22.6652C50.3362 22.2468 50.0949 21.8117 49.9053 21.3597C49.7674 20.4058 49.8019 19.5439 50.0087 18.774C50.2155 17.9874 50.5086 17.2677 50.8878 16.615C51.2842 15.9455 51.7323 15.3346 52.2323 14.7823C52.7321 14.2133 53.2147 13.661 53.6801 13.1254C53.7836 13.1589 53.8611 13.1589 53.9128 13.1254C53.9817 13.0752 54.0421 13.0166 54.0938 12.9497C54.1455 12.866 54.1972 12.7907 54.2489 12.7237C54.3179 12.6568 54.3955 12.6149 54.4816 12.5982C54.6023 12.3471 54.7746 12.163 54.9987 12.0459C55.24 11.912 55.4296 11.7279 55.5675 11.4936C55.7227 11.4601 55.8519 11.4099 55.9553 11.343C56.0587 11.276 56.1536 11.2007 56.2398 11.117C56.3432 11.0333 56.4466 10.958 56.55 10.891C56.6534 10.8074 56.7741 10.7488 56.9119 10.7153V10.4392C57.2223 10.3053 57.4463 10.1547 57.5842 9.98728C57.7393 9.80317 57.9204 9.58564 58.1272 9.33461C58.2823 9.31783 58.403 9.30944 58.4891 9.30944C58.5925 9.30944 58.7391 9.29273 58.9287 9.25923C59.0666 9.02492 59.1872 8.8492 59.2906 8.73208C59.4113 8.61489 59.5836 8.48937 59.8077 8.35547C60.0146 8.45588 60.2387 8.52287 60.48 8.55636C60.7385 8.58978 60.9626 8.69859 61.1521 8.8827C61.1694 9.05002 61.2211 9.18392 61.3073 9.28433C61.3935 9.36803 61.4883 9.45173 61.5917 9.53543C61.6951 9.60235 61.79 9.67766 61.8761 9.76136C61.9796 9.84506 62.0485 9.96218 62.083 10.1128C62.1519 10.1296 62.195 10.1212 62.2122 10.0877C62.2467 10.0543 62.2984 10.0459 62.3674 10.0626C62.4191 10.2969 62.4794 10.4559 62.5483 10.5396C62.6173 10.6065 62.6862 10.7488 62.7551 10.9664C62.669 11.1337 62.6 11.3095 62.5483 11.4936C62.5138 11.661 62.4104 11.7865 62.2381 11.8702C62.2208 11.9873 62.2553 12.0543 62.3415 12.071C62.4277 12.071 62.4794 12.1128 62.4966 12.1965C62.5138 12.3471 62.488 12.4559 62.4191 12.5229C62.8328 13.1756 63.2034 13.8701 63.5308 14.6066C63.8583 15.3262 64.2289 16.0125 64.6426 16.6652ZM61.4107 19.0502C61.4797 18.8661 61.5659 18.7154 61.6693 18.5982C61.79 18.4811 61.8589 18.3053 61.8761 18.071C61.79 17.9372 61.7383 17.8367 61.721 17.7698C61.7038 17.6861 61.6951 17.5606 61.6951 17.3933C61.3159 16.8744 60.9885 16.3221 60.7127 15.7363C60.4368 15.1338 60.1266 14.5731 59.7819 14.0543C59.7474 14.1212 59.687 14.1882 59.6009 14.2551C59.5147 14.3221 59.4199 14.3054 59.3165 14.2049C59.282 14.3388 59.2217 14.4393 59.1355 14.5062C59.0493 14.5564 58.9545 14.5815 58.8511 14.5815C58.7477 14.5648 58.6357 14.5397 58.515 14.5062C58.4115 14.456 58.3168 14.3974 58.2306 14.3305C57.7307 14.7154 57.2308 15.0919 56.731 15.4601C56.2311 15.8284 55.783 16.2551 55.3866 16.7405C55.3176 16.7739 55.2745 16.7907 55.2572 16.7907C55.24 16.7739 55.1883 16.7823 55.1021 16.8158C54.9642 17.1338 54.7919 17.4267 54.5851 17.6945C54.3955 17.9455 54.2059 18.2049 54.0162 18.4727C53.8266 18.7405 53.6629 19.0251 53.525 19.3263C53.3871 19.6275 53.3095 19.979 53.2923 20.3807C53.5853 20.615 53.93 20.7573 54.3265 20.8075C54.7229 20.8577 55.128 20.8661 55.5417 20.8326C55.9726 20.7991 56.3863 20.7489 56.7827 20.682C57.1964 20.5983 57.5756 20.5564 57.9203 20.5564C58.6442 20.3891 59.2648 20.1715 59.7819 19.9037C60.2989 19.6192 60.8419 19.3347 61.4107 19.0502ZM73.0454 23.9205C72.5628 24.0711 72.0371 24.2217 71.4683 24.3723C70.8995 24.5229 70.3307 24.5983 69.7619 24.5983C68.9 24.5983 68.2192 24.3891 67.7193 23.9707C67.6332 23.7866 67.5556 23.6611 67.4866 23.5941C67.4349 23.5272 67.3832 23.4602 67.3315 23.3933C67.297 23.3096 67.2712 23.2008 67.2539 23.0669C67.0471 22.8326 66.8834 22.5648 66.7627 22.2636C66.6421 21.9456 66.5559 21.6276 66.5041 21.3095C66.4697 20.9748 66.4611 20.6401 66.4783 20.3054C66.5128 19.9706 66.5731 19.6526 66.6593 19.3514C66.6938 19.2845 66.711 19.2175 66.711 19.1506C66.7283 19.0836 66.7455 19.0083 66.7627 18.9246C66.8317 18.6568 66.9006 18.3974 66.9696 18.1463C67.0557 17.8953 67.1677 17.6778 67.3057 17.4937C67.2367 17.343 67.2367 17.1756 67.3057 16.9915C67.3746 16.8074 67.4521 16.6401 67.5383 16.4894C67.7796 15.8535 67.9779 15.3179 68.133 14.8827C68.3053 14.4309 68.4777 13.9873 68.6501 13.5522C68.9432 12.7991 69.2189 12.0543 69.4775 11.3179C69.736 10.5814 69.9687 9.78646 70.1755 8.9329C70.3134 8.8492 70.4168 8.7906 70.4858 8.75718C70.5892 8.72369 70.6754 8.69859 70.7443 8.68188C71.0546 8.83249 71.4166 8.98311 71.8302 9.13372C72.2439 9.26762 72.5887 9.33461 72.8645 9.33461C73.0023 9.41824 73.0885 9.48523 73.123 9.53543C73.1575 9.56885 73.1919 9.60235 73.2264 9.63584C73.416 9.85337 73.5798 10.0794 73.7177 10.3137C73.8556 10.5312 73.8987 10.8241 73.8469 11.1923C73.7435 11.343 73.666 11.4183 73.6143 11.4183C73.5281 11.753 73.4332 12.0375 73.3298 12.2718C73.2436 12.5061 73.1489 12.7405 73.0454 12.9748C72.9247 13.2258 72.8128 13.4769 72.7093 13.7279C72.6059 13.9789 72.5197 14.2886 72.4508 14.6568C72.3818 14.7405 72.3301 14.8158 72.2956 14.8827C72.2784 14.9497 72.2526 15.025 72.2181 15.1087C72.1836 15.1923 72.1405 15.2844 72.0888 15.3848C72.0543 15.4685 71.994 15.5438 71.9079 15.6108C71.8561 16.046 71.77 16.3974 71.6493 16.6652C71.5458 16.9329 71.4338 17.2008 71.3132 17.4686C71.1064 17.9539 70.9167 18.4392 70.7443 18.9246C70.5892 19.41 70.4944 19.9622 70.46 20.5816C70.5462 20.5481 70.6237 20.5313 70.6926 20.5313C70.7788 20.5313 70.8564 20.5313 70.9253 20.5313C71.0804 20.5313 71.2615 20.5564 71.4683 20.6067C71.9854 20.3389 72.5456 20.1799 73.1489 20.1296C73.7694 20.0794 74.3813 20.0459 74.9845 20.0292C75.2258 20.0292 75.4672 20.0292 75.7085 20.0292C75.9498 20.0292 76.1739 20.0125 76.3807 19.979C76.5358 20.0627 76.6307 20.1129 76.6651 20.1296C76.7168 20.1296 76.7858 20.1296 76.872 20.1296C76.9926 20.1296 77.096 20.138 77.1822 20.1547C77.389 20.3389 77.5873 20.4728 77.7769 20.5564C77.9662 20.6401 78.1648 20.7154 78.3719 20.7824C78.5611 20.8493 78.7418 20.9246 78.9147 21.0083C79.1039 21.0752 79.2853 21.1757 79.4574 21.3095L79.6381 22.3891C79.7588 22.5397 79.8109 22.6401 79.7938 22.6903C79.7938 22.8242 79.7587 22.9246 79.6902 22.9916L79.7416 23.2678C79.4831 23.318 79.3024 23.3766 79.1989 23.4435C79.1124 23.5104 79.0268 23.5858 78.9403 23.6694C78.8025 23.6862 78.699 23.6945 78.6304 23.6945C78.5783 23.6945 78.5269 23.6945 78.4747 23.6945C78.2333 23.6945 77.9405 23.7364 77.5959 23.8201C77.1305 23.6694 76.6479 23.5941 76.148 23.5941C75.9584 23.5941 75.7602 23.6025 75.5534 23.6192C75.3465 23.636 75.1396 23.6527 74.9328 23.6694C74.726 23.7029 74.5105 23.728 74.2864 23.7447C74.0796 23.7615 73.8642 23.7698 73.6401 23.7698L73.0454 23.9205ZM79.9487 12.8995C80.0694 12.548 80.2587 12.2467 80.5172 11.9957C80.7936 11.7446 81.0864 11.5355 81.3963 11.3681C81.7242 11.184 82.0606 11.0333 82.4047 10.9161C82.7497 10.799 83.0775 10.6986 83.3874 10.6149C84.0766 10.3304 84.8093 10.0626 85.5849 9.81156C86.3776 9.54375 87.1796 9.30944 87.9895 9.10862C88.8172 8.9078 89.6613 8.78229 90.5233 8.73208C91.3853 8.66509 92.2902 8.7655 93.2378 9.03331C93.29 9.20071 93.3671 9.35972 93.4707 9.51033C93.5742 9.66095 93.6778 9.81156 93.7814 9.96218C93.9021 10.1128 94.0049 10.2635 94.0913 10.4141C94.1777 10.548 94.2291 10.6902 94.2462 10.8408C94.4191 10.9915 94.5569 11.1589 94.6597 11.343C94.7633 11.5104 94.7804 11.7363 94.7119 12.0208C94.5398 12.1547 94.3669 12.2802 94.1949 12.3973C94.0399 12.4977 93.867 12.5898 93.6778 12.6735C93.0401 12.5229 92.3937 12.4726 91.7389 12.5229C91.0832 12.5731 90.4976 12.6149 89.9806 12.6484C89.8256 12.4977 89.6356 12.4224 89.4114 12.4224C89.205 12.4224 88.9808 12.4559 88.7394 12.5229C88.5151 12.5898 88.2823 12.6568 88.0409 12.7237C87.8174 12.7907 87.6017 12.8074 87.3946 12.774C87.2225 12.9079 87.0068 12.9999 86.7483 13.0501C86.5069 13.0836 86.2398 13.1171 85.947 13.1505C85.9299 13.2342 85.947 13.2928 85.9984 13.3262C86.0506 13.343 86.0591 13.3932 86.0249 13.4769C86.1276 13.594 86.2569 13.6777 86.4126 13.7279C86.5847 13.7781 86.7568 13.8283 86.9297 13.8785C87.1189 13.9287 87.2832 13.9957 87.421 14.0794C87.5589 14.1463 87.6531 14.2635 87.7053 14.4309C87.9638 14.4309 88.1881 14.4895 88.3773 14.6066C88.5673 14.7238 88.7222 14.866 88.8429 15.0334C88.9636 15.2007 89.0493 15.3848 89.1015 15.5857C89.17 15.7698 89.205 15.9372 89.205 16.0878C89.2564 16.2217 89.3172 16.2802 89.3857 16.2635C89.455 16.2468 89.5321 16.2802 89.6185 16.3639C89.6699 16.5815 89.7992 16.8074 90.0063 17.0417C90.2134 17.2593 90.3769 17.502 90.4976 17.7698C90.5319 18.1882 90.5576 18.5648 90.5747 18.8995C90.5926 19.2175 90.5319 19.5439 90.3941 19.8786C90.1356 20.4979 89.7735 21.0501 89.3078 21.5355C88.8601 22.0209 88.343 22.456 87.7567 22.8409C87.1882 23.2092 86.5762 23.5272 85.9213 23.795C85.2664 24.0627 84.6287 24.2886 84.0081 24.4727C83.9388 24.456 83.8702 24.456 83.8009 24.4727C83.7324 24.4895 83.7153 24.4476 83.7495 24.3472C83.6117 24.4644 83.456 24.5397 83.2839 24.5732C83.1289 24.6067 82.9568 24.615 82.7668 24.5983C82.5776 24.5983 82.379 24.5899 82.1719 24.5732C81.9827 24.5564 81.8013 24.5648 81.6292 24.5983C81.5085 24.4811 81.3963 24.364 81.2928 24.2468C81.2071 24.1464 81.1378 24.0125 81.0864 23.8452C81 23.8452 80.9571 23.8033 80.9571 23.7196C80.9743 23.636 80.9486 23.5941 80.8793 23.5941C80.9828 23.4268 81.0257 23.3347 81.0085 23.318C81.0085 23.2845 80.9828 23.2594 80.9315 23.2427C80.8964 23.2259 80.8622 23.2092 80.8279 23.1924C80.7936 23.159 80.7843 23.1171 80.8022 23.0669C80.8707 22.933 80.8964 22.7824 80.8793 22.615C80.8621 22.4309 80.845 22.2468 80.8279 22.0627C80.8108 21.8786 80.8193 21.7029 80.8536 21.5355C80.905 21.3681 81.0342 21.2342 81.2414 21.1338C81.8277 21.2008 82.379 21.184 82.8961 21.0836C83.4303 20.9665 83.9302 20.8075 84.3958 20.6067C84.8615 20.4058 85.3007 20.1882 85.7142 19.9539C86.1455 19.7196 86.5676 19.5104 86.9811 19.3263C87.0333 19.1757 87.1018 19.0502 87.1882 18.9497C87.2918 18.8493 87.3946 18.7573 87.4981 18.6736C87.6017 18.5899 87.6967 18.4978 87.7824 18.3974C87.8688 18.297 87.9295 18.1714 87.9638 18.0208C87.9809 17.9037 87.9467 17.8367 87.8602 17.82C87.7917 17.7865 87.7567 17.7196 87.7567 17.6192L87.4724 17.5439C87.1446 17.3598 86.7747 17.2091 86.3605 17.0919C85.947 16.958 85.5935 16.8158 85.3007 16.6652C85.1107 16.7656 84.93 16.7907 84.7579 16.7405C84.6022 16.6903 84.3958 16.6401 84.1373 16.5899C83.551 16.5564 82.9825 16.4978 82.4304 16.4141C81.8963 16.3305 81.3792 16.1798 80.8793 15.9623C80.845 15.8786 80.8022 15.8033 80.75 15.7363C80.6986 15.6694 80.6036 15.6526 80.4658 15.6861C80.3622 15.5522 80.2587 15.4266 80.1559 15.3095C80.0523 15.1756 79.9573 15.0334 79.8709 14.8827C79.9059 14.6819 79.9316 14.5146 79.9487 14.3807C79.9659 14.23 79.9145 14.0877 79.7938 13.9538C79.8623 13.7363 79.9145 13.5605 79.9487 13.4267C79.983 13.2928 79.983 13.1171 79.9487 12.8995Z" fill="#0D1017"/>
</g>
</g>
<defs>
<clipPath id="clip0_507_1960">
<rect width="95" height="31" fill="white"/>
</clipPath>
</defs>
</svg>
